<svg xmlns="http://www.w3.org/2000/svg"  viewBox="0 0 64 64" width="64px" height="64px"><path fill="#faefde" d="M11,31.25c0,0,0-2.25-2-2.25c-1,0-2,1-2,4c0,3.867,3,8,5,8c0,12,11,20,20,20s20-6,20-20	c2,0,5-4.133,5-8c0-3-1-4-2-4c-2,0-2,2.25-2,2.25S53,24,52,21s-9-11-22-11S11,22,11,22L11,31.25z"/><path fill="#efd8be" d="M32,61c1.668,0,3.316-0.312,4.91-0.883C36.492,57.777,34.461,56,32,56	c-5.152,0-10.809-4.902-13.758-11.922c-1.016-2.422-3.715-3.594-6.164-2.789C14,56,23.078,61,32,61z"/><path fill="#cda1a7" d="M19.77,17.738c0.781-1.203,1.645-0.43,2.363,0.031c2.512,1.621,8.887,5.23,15.867,5.23	c10,0,17.973-2.969,17.973-2.969C52.989,10.176,43.832,3,33,3c-3.492,0-11,1-14,3C16,6,9,9,9,16c0,2.145,0.633,3.805,2,7	C11,23,17,22,19.77,17.738z"/><path fill="#d3a9b0" d="M33,3c-1.262,0-3.051,0.133-4.961,0.395C28.242,5.969,30.375,8,33,8	c8.281,0,15.738,5.512,18.164,13.414c2.98-0.707,4.809-1.383,4.809-1.383C52.989,10.176,43.832,3,33,3z"/><path fill="#8d6c9f" d="M36.942,10.457c-0.074,0-0.148-0.008-0.223-0.023c-0.539-0.125-0.875-0.66-0.754-1.199l0.445-1.949	c0.125-0.539,0.66-0.875,1.199-0.754c0.539,0.125,0.875,0.66,0.75,1.199L37.914,9.68C37.813,10.145,37.399,10.457,36.942,10.457z M41.575,12.215c-0.16,0-0.324-0.039-0.477-0.121c-0.488-0.266-0.664-0.875-0.398-1.359l0.957-1.754	c0.266-0.484,0.871-0.664,1.359-0.398c0.484,0.266,0.66,0.875,0.395,1.359l-0.957,1.754C42.274,12.027,41.93,12.215,41.575,12.215z M45.567,15.164c-0.25,0-0.5-0.094-0.695-0.281c-0.398-0.387-0.406-1.02-0.02-1.418l1.395-1.434c0.387-0.395,1.02-0.402,1.414-0.016	c0.398,0.383,0.406,1.016,0.02,1.414l-1.395,1.434C46.09,15.063,45.828,15.164,45.567,15.164z M48.614,19.074	c-0.344,0-0.68-0.18-0.867-0.5c-0.273-0.477-0.109-1.09,0.367-1.363l1.734-1c0.477-0.277,1.09-0.113,1.367,0.367	c0.273,0.477,0.109,1.09-0.367,1.363l-1.734,1C48.957,19.031,48.785,19.074,48.614,19.074z M52.867,34.188	c-0.023,0-0.047,0-0.07-0.004c-0.551-0.039-0.965-0.516-0.926-1.066C51.957,31.919,52,30.704,52,29.501	c0-2.598-0.305-5.32-0.879-7.867C51,21.095,51.34,20.56,51.875,20.439c0.539-0.121,1.074,0.219,1.195,0.754	c0.609,2.691,0.93,5.562,0.93,8.309c0,1.25-0.047,2.516-0.133,3.758C53.828,33.785,53.391,34.188,52.867,34.188z"/><path fill="#8d6c9f" d="M32,62c-5.376,0-11.7-2.071-15.747-7c-2.729-3.323-3.877-8.49-5.069-13.129	C8.614,41.086,6,36.801,6,33c0-4.641,2.297-5,3-5c2.199,0,3,1.941,3,3.25h-2C9.992,30.879,9.883,30,9,30c-0.48,0-1,0.938-1,3	c0,3.484,2.742,7,4,7c0.465,0,0.867,0.32,0.973,0.77c1.232,5.223,2.732,10.834,5.906,14.23c3.489,3.734,8.793,5,13.121,5	c4.328,0,10.631-2.266,14.12-6c3.174-3.396,3.675-8.007,4.907-13.23C51.132,40.321,51.535,40,52,40c1.258,0,4-3.516,4-7	c0-2.062-0.52-3-1-3c-0.883,0-0.992,0.879-1,1.258l-2-0.008c0-1.309,0.801-3.25,3-3.25c0.703,0,3,0.359,3,5	c0,3.801-2.613,8.086-5.184,8.871c-1.192,4.639-1.34,8.806-4.069,12.129C44.7,58.929,37.376,62,32,62z"/><path fill="#8d6c9f" d="M11,34c-0.551,0-1-0.449-1-1V23c0-0.551,0.449-1,1-1s1,0.449,1,1v10C12,33.551,11.551,34,11,34z"/><path fill="#8d6c9f" d="M11,24c-0.387,0-0.758-0.227-0.918-0.605C8.633,20.02,8,18.301,8,16	C8,8.406,15.297,5.199,18.691,5.008C21.816,3.039,26.753,2,33,2c11.098,0,20.715,7.129,23.93,17.742	c0.152,0.508-0.113,1.043-0.609,1.227c-0.109,0.043-2.809,1.039-7.051,1.883c-0.543,0.113-1.066-0.242-1.176-0.785	c-0.109-0.539,0.242-1.066,0.785-1.176c2.672-0.531,4.73-1.133,5.836-1.488C51.52,10.285,42.727,4,33,4	c-5.93,0-10.707,1.008-13.445,2.832C19.391,6.941,19.196,7,19,7c-2.562,0-9,2.676-9,9c0,1.938,0.555,3.426,1.918,6.605	c0.219,0.508-0.016,1.098-0.523,1.312C11.266,23.973,11.133,24,11,24z"/><path fill="#8d6c9f" d="M41.121,23.906c-0.523,0-0.965-0.41-0.996-0.941c-0.031-0.551,0.387-1.023,0.938-1.059	c1.352-0.078,2.734-0.211,4.117-0.398c0.547-0.07,1.051,0.312,1.125,0.859s-0.312,1.051-0.859,1.121	c-1.43,0.195-2.863,0.332-4.262,0.414C41.16,23.906,41.141,23.906,41.121,23.906z M36.879,23.969c-0.02,0-0.039,0-0.059,0	c-7.238-0.391-13.547-4.211-15.668-5.641c-0.73,0.773-2.047,2.074-3.695,3.238c-0.449,0.316-1.074,0.207-1.395-0.242	c-0.316-0.453-0.207-1.074,0.242-1.395c2.27-1.602,3.91-3.551,3.926-3.57c0.34-0.406,0.941-0.477,1.367-0.16	c0.07,0.055,7.215,5.332,15.332,5.773c0.551,0.027,0.973,0.5,0.945,1.051C37.848,23.555,37.407,23.969,36.879,23.969z"/><path fill="#8d6c9f" d="M38,50H26c-0.553,0-1-0.448-1-1s0.447-1,1-1h12c0.553,0,1,0.448,1,1S38.553,50,38,50z"/><path fill="#acb7d0" d="M32,29c-7,0-16.8-1.636-21-3v7c3.936,4.469,5.399,10,11,10s7.201-6,10-6s4.4,6,10,6	s7.064-5.531,11-10v-7C48.8,27.364,39,29,32,29z M27.711,34.518c-0.522,1.475-1.733,3.227-4.546,3.391	c-4.409,0.258-5.957-3.261-6.418-5.441c-0.145-0.689,0.581-1.289,1.418-1.19l7.705,0.911C27.207,32.348,28.091,33.445,27.711,34.518	z M47.253,32.469c-0.461,2.178-2.009,5.698-6.418,5.44c-2.812-0.165-4.024-1.917-4.546-3.391c-0.379-1.073,0.504-2.169,1.84-2.327	l7.705-0.911C46.672,31.18,47.398,31.78,47.253,32.469z"/><path fill="none" stroke="#8d6c9f" stroke-linecap="round" stroke-linejoin="round" stroke-miterlimit="10" stroke-width="2" d="M27.711,34.518c-0.522,1.475-1.733,3.227-4.546,3.391c-4.409,0.258-5.957-3.261-6.418-5.441c-0.145-0.689,0.581-1.289,1.418-1.19	l7.705,0.911C27.207,32.348,28.091,33.445,27.711,34.518z M47.253,32.469c-0.461,2.178-2.009,5.698-6.418,5.44	c-2.812-0.165-4.024-1.917-4.546-3.391c-0.379-1.073,0.504-2.169,1.84-2.327l7.705-0.911C46.672,31.18,47.398,31.78,47.253,32.469z"/><path fill="none" stroke="#8d6c9f" stroke-linecap="round" stroke-linejoin="round" stroke-miterlimit="10" stroke-width="2" d="M32,29	c-7,0-16.8-1.636-21-3v7c3.936,4.469,5.6,10,11.2,10s7-5.455,9.8-5.455S36.2,43,41.8,43s7.265-5.531,11.2-10v-7	C48.8,27.364,39,29,32,29z"/></svg>